<svg xmlns="http://www.w3.org/2000/svg" viewBox="0 0 48 48"><defs><style>.cls-1{fill:#ffbc5a;}.cls-2{fill:#cc8679;}.cls-3{fill:#bf7267;}.cls-4{fill:#e05555;}.cls-5{fill:#c63e3e;}.cls-6{fill:#b52c2c;}.cls-7{fill:#231f20;}</style></defs><title>Scale</title><g id="Scale"><rect class="cls-1" x="5" y="6" width="38" height="3" rx="1.5" ry="1.5"/><rect class="cls-1" x="22" y="7" width="4" height="39"/><path class="cls-2" d="M2,23H16a0,0,0,0,1,0,0v2a3,3,0,0,1-3,3H5a3,3,0,0,1-3-3V23A0,0,0,0,1,2,23Z"/><path class="cls-3" d="M13,23v2a3,3,0,0,1-3,3h3a3,3,0,0,0,3-3V23Z"/><path class="cls-2" d="M32,23H46a0,0,0,0,1,0,0v2a3,3,0,0,1-3,3H35a3,3,0,0,1-3-3V23A0,0,0,0,1,32,23Z"/><path class="cls-3" d="M43,23v2a3,3,0,0,1-3,3h3a3,3,0,0,0,3-3V23Z"/><path class="cls-4" d="M19,36H29a2,2,0,0,1,2,2v3a0,0,0,0,1,0,0H17a0,0,0,0,1,0,0V38A2,2,0,0,1,19,36Z"/><path class="cls-5" d="M29,36H26a2,2,0,0,1,2,2v3h3V38A2,2,0,0,0,29,36Z"/><circle class="cls-4" cx="24" cy="7" r="5"/><path class="cls-5" d="M14,41H34a3,3,0,0,1,3,3v2a0,0,0,0,1,0,0H11a0,0,0,0,1,0,0V44A3,3,0,0,1,14,41Z"/><path class="cls-6" d="M34,41H31a3,3,0,0,1,3,3v2h3V44A3,3,0,0,0,34,41Z"/><path class="cls-7" d="M46.8945,22.5527,40.6182,10H41.5a2.5,2.5,0,0,0,0-5H29.65a5.99,5.99,0,0,0-11.3,0H6.5a2.5,2.5,0,0,0,0,5h.8818L1.1055,22.5527A.9767.9767,0,0,0,1,23v2a4.004,4.004,0,0,0,4,4h8a4.004,4.004,0,0,0,4-4V23a1.1728,1.1728,0,0,0-.1055-.4473L10.6182,10h8.1936A6.0361,6.0361,0,0,0,21,12.1882V35H19a3.0033,3.0033,0,0,0-3,3v2H14a4.004,4.004,0,0,0-4,4v2a.9994.9994,0,0,0,1,1H37a.9994.9994,0,0,0,1-1V44a4.004,4.004,0,0,0-4-4H32V38a3.0033,3.0033,0,0,0-3-3H27V12.1882A6.0361,6.0361,0,0,0,29.1882,10h8.1936L31.1055,22.5527A1.2227,1.2227,0,0,0,31,23v2a4.004,4.004,0,0,0,4,4h8a4.004,4.004,0,0,0,4-4V23A1.4986,1.4986,0,0,0,46.8945,22.5527ZM9,11.2363,14.3818,22H3.6182ZM15,25a2.0026,2.0026,0,0,1-2,2H5a2.0026,2.0026,0,0,1-2-2V24H15ZM24,3a4,4,0,1,1-4,4A4.004,4.004,0,0,1,24,3ZM6.5,8a.5.5,0,0,1,0-1H18a5.9883,5.9883,0,0,0,.09,1ZM36,44v1H12V44a2.0026,2.0026,0,0,1,2-2H34A2.0026,2.0026,0,0,1,36,44Zm-6-6v2H18V38a1.0007,1.0007,0,0,1,1-1H29A1.0007,1.0007,0,0,1,30,38Zm-5-3H23V12.91a5.58,5.58,0,0,0,2,0ZM30,7H41.5a.5.5,0,0,1,0,1H29.91A5.9883,5.9883,0,0,0,30,7ZM44.3818,22H33.6182L39,11.2363ZM45,25a2.0026,2.0026,0,0,1-2,2H35a2.0026,2.0026,0,0,1-2-2V24H45Z"/></g></svg>